<?xml version="1.0" encoding="utf-8"?>
<!-- Generator: Adobe Illustrator 28.1.0, SVG Export Plug-In . SVG Version: 6.00 Build 0)  -->
<svg version="1.1" id="Layer_1" xmlns="http://www.w3.org/2000/svg" xmlns:xlink="http://www.w3.org/1999/xlink" x="0px" y="0px"
	 viewBox="0 0 56 75" style="enable-background:new 0 0 56 75;" xml:space="preserve">
<style type="text/css">
	.st0{fill:#56BCB6;}
	.st1{fill:#FFFFFF;}
</style>
<g id="Symbols">
	<g id="Big-Download" transform="translate(-24.000000, -38.000000)">
		<g id="PDF-File-Icon" transform="translate(24.000000, 38.000000)">
			<path id="Fill-12" class="st0" d="M55.9,17.7c0-0.7-0.2-1.3-0.7-1.8l-13.9-15C40.7,0.2,40,0,39.2,0H4.4C2,0,0,2,0,4.4v66.2
				C0,73,2,75,4.4,75h47.2c2.4,0,4.4-2,4.4-4.4L55.9,17.7z"/>
			<g id="Group" transform="translate(9.882353, 22.826087)">
				<g>
					<path id="Fill-11" class="st1" d="M8.3,28.6c-1.1,1.9-1.8,3.1-2.4,3.8c-0.2,0.2-0.5,0.3-0.8,0.3c-0.7,0-1.2-0.5-1.2-1.2
						c0-0.3,0.1-0.6,0.3-0.8C4.9,30.1,6.5,29.4,8.3,28.6z M16,3.5c0.7,0,1.2,0.5,1.2,1.2c0,1-0.5,2.8-1,4.6
						c-0.9-2.2-1.4-3.7-1.4-4.6C14.8,4.1,15.4,3.5,16,3.5z M16.8,17c1,1.5,2,2.9,3.2,4.2c-1.9,0.6-3.8,1.2-5.4,1.8
						C15.4,21,16.2,18.9,16.8,17z M31.5,23.9c-1.4,0-3.4-0.6-5.2-1.5c2.3-0.6,4.2-1,5.2-1c0.7,0,1.2,0.5,1.2,1.2
						C32.7,23.4,32.2,23.9,31.5,23.9z M31.5,18.6c-2.4,0-5.8,0.9-8.3,1.7c-2.1-2-3.9-4.4-5.2-6.9c0.1-0.4,0.3-0.9,0.4-1.3
						c0.9-2.7,1.7-5.2,1.7-7.3c0-1.1-0.4-2.1-1.2-2.9C18.1,1,17.1,0.6,16,0.6c-2.3,0-4.1,1.9-4.1,4.1c0,2.6,1.4,5.8,2.9,8.9
						c-1.1,3.5-2.4,7.4-4.1,10.8c-0.6,0.2-1.2,0.4-1.7,0.7c-2.8,1.1-5.2,2-6.8,3.3l-0.1,0.1c-0.7,0.8-1.1,1.9-1.1,3
						c0,2.3,1.8,4.1,4.1,4.1c1.1,0,2.2-0.4,2.9-1.2l0.1-0.1c1.4-1.7,3-4.7,4.4-7.4c3.2-1.3,6.7-2.6,9.9-3.4c2.5,2,6.1,3.3,9.1,3.3
						c2.2,0,4.1-1.9,4.1-4.1C35.6,20.4,33.7,18.6,31.5,18.6z"/>
				</g>
			</g>
		</g>
	</g>
</g>
</svg>
