<?xml version="1.0" encoding="utf-8"?>
<!-- Generator: Adobe Illustrator 28.1.0, SVG Export Plug-In . SVG Version: 6.00 Build 0)  -->
<svg version="1.1" id="Capa_1" xmlns="http://www.w3.org/2000/svg" xmlns:xlink="http://www.w3.org/1999/xlink" x="0px" y="0px"
	 viewBox="0 0 500 500" style="enable-background:new 0 0 500 500;" xml:space="preserve">
<style type="text/css">
	.st0{fill:#57BDB7;}
	.st1{fill:#56BCB6;}
</style>
<g>
	<path class="st0" d="M185.4,408.2c5.3-29.1-3.4-62.4-21.7-85.4c-5-5.8-13.6-12.2-21.4-12.2c-4,0-7.8,1.7-10.7,6.2
		C90.8,246.2,49.7,175.6,8.7,105C23,96.5,38.7,92.4,54.2,92.4c28.5,0,56,13.9,71.6,39.6c32.5,53.4,63.8,107.3,93.5,162.3
		C241.2,334.6,225,388.1,185.4,408.2"/>
	<path class="st0" d="M423.2,266.8c-92.4-38.3-53.8-168,29.5-168c12,0,25,2.7,38.6,8.8L423.2,266.8"/>
	<path class="st1" d="M376.6,293.6c-29.7-55-61.1-108.9-93.5-162.3c-24.2-39.6-76.5-51.2-117.2-27C207,175,248,245.6,288.9,316.2
		c8.5-13.1,24.5-2.9,32.1,6c18.2,23,26.9,56.4,21.7,85.4C382.2,387.5,398.4,334,376.6,293.6L376.6,293.6z"/>
</g>
</svg>
