<?xml version="1.0" encoding="utf-8"?>
<!-- Generator: Adobe Illustrator 28.1.0, SVG Export Plug-In . SVG Version: 6.00 Build 0)  -->
<svg version="1.1" id="Layer_1" xmlns="http://www.w3.org/2000/svg" xmlns:xlink="http://www.w3.org/1999/xlink" x="0px" y="0px"
	 viewBox="0 0 56 75" style="enable-background:new 0 0 56 75;" xml:space="preserve">
<style type="text/css">
	.st0{fill:#56BCB6;}
</style>
<g id="Symbols">
	<g id="Spreadsheet-File-Icon">
		<g>
			<path id="Fill-12" class="st0" d="M55.9,17.7c0-0.7-0.2-1.3-0.7-1.8l-13.9-15C40.7,0.2,40,0,39.2,0H4.4C2,0,0,2,0,4.4v66.2
				C0,73,2,75,4.4,75h47.2c2.4,0,4.4-2,4.4-4.4L55.9,17.7z M51.6,71.7H4.4c-0.6,0-1.1-0.5-1.1-1.1V4.4c0-0.6,0.5-1.1,1.1-1.1h34.3
				v9.9c0,2.7,2.2,4.8,4.8,4.8h9.2v52.5C52.7,71.2,52.2,71.7,51.6,71.7L51.6,71.7z"/>
			<path id="Fill-13" class="st0" d="M31.5,46.1h-6.6l1.3-7.7h6.6L31.5,46.1z M41.2,36.5c0-1.1-0.8-2-1.9-2h-2L38,30
				c0.1-0.6-0.1-1.2-0.4-1.6c-0.4-0.4-0.9-0.7-1.4-0.7c-1,0-1.8,0.7-1.9,1.6l-0.8,5.2h-6.6l0.8-4.5c0.1-0.6-0.1-1.2-0.5-1.7
				c-0.4-0.4-0.9-0.7-1.4-0.7c-1,0-1.7,0.7-1.9,1.6l-0.8,5.2h-3.2c-1,0-1.9,0.9-1.9,2s0.9,2,1.9,2h2.5L21,46.1h-2.7
				c-1,0-1.9,0.9-1.9,2s0.8,2,1.9,2h2l-0.8,4.6c-0.1,0.6,0.1,1.2,0.4,1.7c0.4,0.4,0.9,0.7,1.4,0.7c1.1,0,1.8-0.9,1.9-1.6l0.8-5.3
				h6.6l-0.8,4.6c-0.1,0.6,0.1,1.2,0.4,1.6c0.4,0.4,0.9,0.7,1.4,0.7c0.9,0,1.7-0.7,1.9-1.6l0.9-5.3h3.1c1,0,1.9-0.9,1.9-2
				s-0.8-2-1.9-2H35l1.3-7.7H39C40.3,38.5,41.2,37.5,41.2,36.5z"/>
		</g>
	</g>
</g>
</svg>
